<svg xmlns="http://www.w3.org/2000/svg" xmlns:xlink="http://www.w3.org/1999/xlink" width="500" zoomAndPan="magnify" viewBox="0 0 375 374.999991" height="500" preserveAspectRatio="xMidYMid meet" version="1.2"><defs/><g id="0f00680549"><g style="fill:#fccc15;fill-opacity:1;"><g transform="translate(39.021696, 213.374986)"><path style="stroke:none" d="M 33.203125 -37.578125 C 32.992188 -39.660156 32.101562 -41.273438 30.53125 -42.421875 C 28.957031 -43.566406 26.84375 -44.140625 24.1875 -44.140625 C 21.457031 -44.140625 19.363281 -43.582031 17.90625 -42.46875 C 16.445312 -41.351562 15.71875 -39.945312 15.71875 -38.25 C 15.675781 -36.363281 16.484375 -34.929688 18.140625 -33.953125 C 19.796875 -32.984375 21.769531 -32.234375 24.0625 -31.703125 L 28.796875 -30.578125 C 31.847656 -29.890625 34.5625 -28.890625 36.9375 -27.578125 C 39.320312 -26.273438 41.195312 -24.597656 42.5625 -22.546875 C 43.925781 -20.492188 44.609375 -18 44.609375 -15.0625 C 44.585938 -10.238281 42.78125 -6.394531 39.1875 -3.53125 C 35.59375 -0.675781 30.578125 0.75 24.140625 0.75 C 17.734375 0.75 12.625 -0.707031 8.8125 -3.625 C 5 -6.550781 3.023438 -10.863281 2.890625 -16.5625 L 13.671875 -16.5625 C 13.859375 -13.914062 14.898438 -11.925781 16.796875 -10.59375 C 18.703125 -9.269531 21.101562 -8.609375 24 -8.609375 C 26.832031 -8.609375 29.09375 -9.207031 30.78125 -10.40625 C 32.476562 -11.601562 33.335938 -13.164062 33.359375 -15.09375 C 33.335938 -16.875 32.550781 -18.242188 31 -19.203125 C 29.457031 -20.171875 27.253906 -21 24.390625 -21.6875 L 18.640625 -23.125 C 14.203125 -24.195312 10.691406 -25.890625 8.109375 -28.203125 C 5.535156 -30.523438 4.257812 -33.625 4.28125 -37.5 C 4.257812 -40.695312 5.109375 -43.492188 6.828125 -45.890625 C 8.554688 -48.285156 10.929688 -50.144531 13.953125 -51.46875 C 16.984375 -52.800781 20.421875 -53.46875 24.265625 -53.46875 C 28.179688 -53.46875 31.601562 -52.796875 34.53125 -51.453125 C 37.457031 -50.117188 39.734375 -48.257812 41.359375 -45.875 C 42.992188 -43.488281 43.835938 -40.722656 43.890625 -37.578125 Z M 33.203125 -37.578125 "/></g></g><g style="fill:#fccc15;fill-opacity:1;"><g transform="translate(92.962046, 213.374986)"><path style="stroke:none" d="M 53.0625 -26.375 C 53.0625 -20.625 51.972656 -15.726562 49.796875 -11.6875 C 47.628906 -7.65625 44.679688 -4.578125 40.953125 -2.453125 C 37.222656 -0.335938 33.023438 0.71875 28.359375 0.71875 C 23.671875 0.71875 19.460938 -0.34375 15.734375 -2.46875 C 12.003906 -4.601562 9.054688 -7.691406 6.890625 -11.734375 C 4.734375 -15.773438 3.65625 -20.65625 3.65625 -26.375 C 3.65625 -32.125 4.734375 -37.015625 6.890625 -41.046875 C 9.054688 -45.085938 12.003906 -48.164062 15.734375 -50.28125 C 19.460938 -52.40625 23.671875 -53.46875 28.359375 -53.46875 C 33.023438 -53.46875 37.222656 -52.40625 40.953125 -50.28125 C 44.679688 -48.164062 47.628906 -45.085938 49.796875 -41.046875 C 51.972656 -37.015625 53.0625 -32.125 53.0625 -26.375 Z M 41.75 -26.375 C 41.75 -31.96875 40.53125 -36.238281 38.09375 -39.1875 C 35.65625 -42.132812 32.410156 -43.609375 28.359375 -43.609375 C 24.304688 -43.609375 21.0625 -42.132812 18.625 -39.1875 C 16.1875 -36.238281 14.96875 -31.96875 14.96875 -26.375 C 14.96875 -20.789062 16.1875 -16.519531 18.625 -13.5625 C 21.0625 -10.613281 24.304688 -9.140625 28.359375 -9.140625 C 32.410156 -9.140625 35.65625 -10.613281 38.09375 -13.5625 C 40.53125 -16.519531 41.75 -20.789062 41.75 -26.375 Z M 41.75 -26.375 "/></g></g><g style="fill:#fccc15;fill-opacity:1;"><g transform="translate(156.121378, 213.374986)"><path style="stroke:none" d="M 48.703125 -52.75 L 48.703125 0 L 39.078125 0 L 16.125 -33.203125 L 15.734375 -33.203125 L 15.734375 0 L 4.578125 0 L 4.578125 -52.75 L 14.375 -52.75 L 37.140625 -19.578125 L 37.609375 -19.578125 L 37.609375 -52.75 Z M 48.703125 -52.75 "/></g></g><path style="fill:none;stroke-width:13;stroke-linecap:butt;stroke-linejoin:miter;stroke:#000000;stroke-opacity:1;stroke-miterlimit:4;" d="M 0.00239059 6.498857 L 50.820102 6.498857 " transform="matrix(0.75,0,0,0.75,222.236488,160.282108)"/><path style="fill:none;stroke-width:13;stroke-linecap:butt;stroke-linejoin:miter;stroke:#000000;stroke-opacity:1;stroke-miterlimit:4;" d="M 0.00236152 6.500194 L 28.653726 6.502047 " transform="matrix(0.749991,-0.00359328,0.00359328,0.749991,222.213153,182.382732)"/><path style="fill:none;stroke-width:13;stroke-linecap:butt;stroke-linejoin:miter;stroke:#000000;stroke-opacity:1;stroke-miterlimit:4;" d="M 0.00239059 6.501439 L 50.820102 6.501439 " transform="matrix(0.75,0,0,0.75,222.236488,204.483296)"/><g style="fill:#000000;fill-opacity:1;"><g transform="translate(265.814171, 213.01073)"><path style="stroke:none" d="M 15.046875 -52.75 L 25.671875 -34.765625 L 26.09375 -34.765625 L 36.78125 -52.75 L 49.375 -52.75 L 33.28125 -26.375 L 49.734375 0 L 36.90625 0 L 26.09375 -18 L 25.671875 -18 L 14.859375 0 L 2.09375 0 L 18.59375 -26.375 L 2.390625 -52.75 Z M 15.046875 -52.75 "/></g></g></g></svg>